<?xml version="1.0" standalone="no"?>
<!DOCTYPE svg PUBLIC "-//W3C//DTD SVG 20010904//EN"
 "http://www.w3.org/TR/2001/REC-SVG-20010904/DTD/svg10.dtd">
<svg version="1.0" xmlns="http://www.w3.org/2000/svg"
 width="100.000000pt" height="100.000000pt" viewBox="0 0 100.000000 100.000000"
 preserveAspectRatio="xMidYMid meet">

<g transform="translate(0.000000,100.000000) scale(0.100000,-0.100000)"
fill="#000000" stroke="none">
<path d="M250 689 c-111 -17 -120 -20 -120 -34 0 -10 -16 -15 -58 -17 l-57 -3
0 -125 0 -125 54 -3 c33 -2 59 -9 65 -17 12 -16 224 -45 322 -45 43 0 54 4 79
30 l29 30 192 0 c157 0 194 -3 204 -15 7 -8 16 -12 21 -9 5 3 9 75 9 160 0
124 -3 154 -14 154 -7 0 -19 -7 -26 -15 -10 -12 -45 -15 -194 -15 l-182 0 -29
30 c-29 30 -29 30 -134 29 -58 -1 -131 -5 -161 -10z m275 -39 l29 -30 203 0
203 0 0 -25 0 -25 -104 0 c-59 0 -108 -4 -111 -10 -4 -6 33 -10 104 -10 l111
0 0 -35 0 -35 -110 0 c-67 0 -110 -4 -110 -10 0 -6 43 -10 110 -10 l110 0 0
-25 0 -25 -201 0 -201 0 -30 -30 c-27 -27 -36 -30 -96 -30 -37 0 -111 5 -165
12 -76 9 -101 16 -108 30 -8 14 -22 18 -64 18 l-55 0 0 105 0 105 60 0 c45 0
60 4 60 14 0 10 25 17 88 26 48 6 92 13 97 15 6 2 42 4 81 4 66 1 72 -1 99
-29z"/>
</g>
</svg>
