<?xml version="1.0" standalone="no"?>
<!DOCTYPE svg PUBLIC "-//W3C//DTD SVG 20010904//EN"
 "http://www.w3.org/TR/2001/REC-SVG-20010904/DTD/svg10.dtd">
<svg version="1.0" xmlns="http://www.w3.org/2000/svg"
 width="300.000000pt" height="200.000000pt" viewBox="0 0 300.000000 200.000000"
 preserveAspectRatio="xMidYMid meet">

<g transform="translate(0.000000,200.000000) scale(0.100000,-0.100000)"
fill="#000000" stroke="none">
<path d="M788 1941 c-32 -29 -33 -31 -36 -123 -3 -80 0 -98 18 -126 11 -18 32
-37 46 -42 37 -15 1382 -13 1423 1 48 17 61 53 61 164 0 93 -1 98 -29 126
l-29 29 -711 0 -711 0 -32 -29z m1442 -60 c13 -25 13 -127 0 -152 -10 -18 -29
-19 -698 -19 -522 0 -691 3 -700 12 -16 16 -16 150 0 166 9 9 178 12 700 12
669 0 688 -1 698 -19z"/>
<path d="M349 1449 c-14 -5 -31 -21 -38 -35 -16 -35 -16 -693 1 -729 16 -34
67 -48 165 -44 132 6 123 -25 123 409 0 438 11 404 -134 407 -50 1 -103 -2
-117 -8z m181 -399 l0 -341 -77 3 -78 3 -3 325 c-1 179 0 330 3 337 3 9 28 13
80 13 l75 0 0 -340z"/>
<path d="M766 1444 c-14 -14 -16 -67 -16 -437 0 -232 5 -453 10 -492 13 -84
81 -231 135 -287 102 -108 212 -170 343 -194 104 -18 480 -18 585 1 177 31
336 151 416 315 22 47 46 109 51 139 6 30 10 248 10 502 0 433 -1 449 -19 459
-13 7 -269 10 -760 10 -659 0 -741 -2 -755 -16z m212 -627 c2 -451 0 -568 -10
-565 -21 7 -95 126 -120 192 -22 59 -22 73 -26 490 -2 236 -1 435 2 443 4 10
23 13 78 11 l73 -3 3 -568z m1017 -37 l0 -605 -50 -27 c-94 -51 -165 -60 -452
-56 -235 4 -263 6 -318 27 -33 12 -77 33 -97 46 l-38 25 0 593 c0 327 3 597 7
600 3 4 218 6 477 5 l471 -3 0 -605z m240 180 c0 -411 -1 -427 -22 -495 -23
-72 -82 -174 -121 -209 l-22 -19 0 570 c0 313 3 573 7 577 4 4 41 5 83 4 l75
-3 0 -425z"/>
<path d="M2524 1454 c-12 -3 -32 -16 -45 -30 l-24 -26 0 -349 0 -349 28 -27
c26 -27 32 -28 121 -28 86 0 97 2 120 24 l26 24 0 357 0 357 -25 23 c-21 20
-37 24 -102 26 -43 1 -88 0 -99 -2z m154 -76 c17 -17 17 -639 0 -656 -16 -16
-130 -16 -146 0 -17 17 -17 639 0 656 7 7 39 12 73 12 34 0 66 -5 73 -12z"/>
</g>
</svg>
