<?xml version="1.0" standalone="no"?>
<!DOCTYPE svg PUBLIC "-//W3C//DTD SVG 20010904//EN"
 "http://www.w3.org/TR/2001/REC-SVG-20010904/DTD/svg10.dtd">
<svg version="1.0" xmlns="http://www.w3.org/2000/svg"
 width="100.000000pt" height="100.000000pt" viewBox="0 0 100.000000 100.000000"
 preserveAspectRatio="xMidYMid meet">

<g transform="translate(0.000000,100.000000) scale(0.100000,-0.100000)"
fill="#000000" stroke="none">
<path d="M834 872 c-7 -4 -13 -16 -15 -27 -4 -19 -14 -20 -314 -25 l-310 -5
-46 -27 c-56 -33 -94 -76 -122 -138 -17 -36 -21 -65 -21 -145 0 -89 3 -106 26
-151 39 -74 72 -109 130 -138 l52 -26 297 0 297 0 11 -30 c10 -29 12 -30 75
-30 54 0 67 3 76 19 6 13 10 144 10 360 0 388 4 371 -83 371 -29 0 -57 -4 -63
-8z m91 -367 l0 -320 -27 -3 c-21 -3 -29 3 -40 25 l-13 28 -330 5 c-182 3
-331 7 -332 8 -113 98 -127 126 -128 257 0 93 2 104 30 154 18 32 46 64 69 80
l39 26 326 5 326 5 13 28 c11 22 19 28 40 25 l27 -3 0 -320z"/>
</g>
</svg>
