<?xml version="1.0" standalone="no"?>
<!DOCTYPE svg PUBLIC "-//W3C//DTD SVG 20010904//EN"
 "http://www.w3.org/TR/2001/REC-SVG-20010904/DTD/svg10.dtd">
<svg version="1.0" xmlns="http://www.w3.org/2000/svg"
 width="100.000000pt" height="100.000000pt" viewBox="0 0 100.000000 100.000000"
 preserveAspectRatio="xMidYMid meet">

<g transform="translate(0.000000,100.000000) scale(0.100000,-0.100000)"
fill="#000000" stroke="none">
<path d="M188 747 l-188 -142 0 -102 0 -102 193 -146 192 -145 290 2 290 3 0
385 0 385 -295 2 -295 2 -187 -142z m740 -244 l2 -353 -269 0 -269 0 -176 132
-177 133 3 89 3 90 175 133 175 133 265 -3 265 -2 3 -352z"/>
<path d="M385 560 l-60 -62 60 -55 60 -55 3 46 3 47 102 -3 102 -3 5 -42 5
-42 58 56 58 56 -58 59 -58 59 -5 -48 -5 -48 -100 0 -100 0 -5 48 -5 48 -60
-61z"/>
</g>
</svg>
