<?xml version="1.0" standalone="no"?>
<!DOCTYPE svg PUBLIC "-//W3C//DTD SVG 20010904//EN"
 "http://www.w3.org/TR/2001/REC-SVG-20010904/DTD/svg10.dtd">
<svg version="1.0" xmlns="http://www.w3.org/2000/svg"
 width="100.000000pt" height="100.000000pt" viewBox="0 0 100.000000 100.000000"
 preserveAspectRatio="xMidYMid meet">

<g transform="translate(0.000000,100.000000) scale(0.100000,-0.100000)"
fill="#000000" stroke="none">
<path d="M910 790 l0 -30 -342 0 c-383 0 -408 -3 -474 -68 -55 -53 -74 -101
-74 -182 0 -102 37 -165 129 -223 35 -22 43 -22 399 -25 l362 -3 0 -29 c0 -28
2 -30 40 -30 l40 0 0 310 0 310 -40 0 c-38 0 -40 -2 -40 -30z m58 -282 c-3
-244 -5 -283 -18 -283 -9 0 -16 11 -18 27 l-3 27 -362 3 c-349 3 -363 4 -402
25 -51 27 -79 57 -104 113 -43 95 -10 215 77 275 l44 30 371 5 372 5 3 28 c2
19 9 27 23 27 19 0 19 -8 17 -282z"/>
<path d="M540 545 l-34 -35 42 -43 42 -42 0 33 0 32 64 0 65 0 3 -31 3 -30 38
38 37 39 -40 39 -40 39 0 -32 0 -32 -65 0 -65 0 0 30 c0 39 -9 38 -50 -5z"/>
</g>
</svg>
