<?xml version="1.0" standalone="no"?>
<!DOCTYPE svg PUBLIC "-//W3C//DTD SVG 20010904//EN"
 "http://www.w3.org/TR/2001/REC-SVG-20010904/DTD/svg10.dtd">
<svg version="1.0" xmlns="http://www.w3.org/2000/svg"
 width="100.000000pt" height="100.000000pt" viewBox="0 0 100.000000 100.000000"
 preserveAspectRatio="xMidYMid meet">

<g transform="translate(0.000000,100.000000) scale(0.100000,-0.100000)"
fill="#000000" stroke="none">
<path d="M303 969 c-115 -57 -184 -229 -186 -459 -2 -256 86 -465 210 -499 55
-16 505 -15 521 1 9 9 12 129 12 479 0 257 -3 474 -6 483 -5 14 -38 16 -258
16 -235 0 -254 -1 -293 -21z m515 -472 l2 -458 -249 3 -249 3 -38 31 c-21 17
-52 58 -70 92 -87 171 -89 486 -4 652 30 59 87 119 124 129 17 5 132 9 256 8
l225 -2 3 -458z"/>
</g>
</svg>
