<?xml version="1.0" standalone="no"?>
<!DOCTYPE svg PUBLIC "-//W3C//DTD SVG 20010904//EN"
 "http://www.w3.org/TR/2001/REC-SVG-20010904/DTD/svg10.dtd">
<svg version="1.0" xmlns="http://www.w3.org/2000/svg"
 width="100.000000pt" height="100.000000pt" viewBox="0 0 100.000000 100.000000"
 preserveAspectRatio="xMidYMid meet">

<g transform="translate(0.000000,100.000000) scale(0.100000,-0.100000)"
fill="#000000" stroke="none">
<path d="M167 770 c-50 -15 -121 -76 -154 -134 -18 -31 -17 -220 1 -254 22
-41 86 -99 136 -121 38 -17 66 -21 181 -21 l135 0 29 30 29 30 191 0 191 0 29
-30 c16 -16 32 -30 37 -30 4 0 8 122 8 270 0 295 0 297 -55 240 l-29 -30 -186
0 -186 0 -29 30 -29 30 -135 -1 c-75 0 -149 -5 -164 -9z m312 -45 l38 -35 195
0 c155 0 198 3 214 15 10 8 22 15 27 15 4 0 7 -94 7 -210 0 -116 -4 -210 -9
-210 -5 0 -14 7 -21 15 -10 12 -48 15 -219 15 l-207 0 -35 -36 -34 -36 -115 4
c-135 6 -186 23 -241 85 -91 101 -89 231 5 331 58 62 113 79 263 81 93 1 93 1
132 -34z"/>
</g>
</svg>
