<?xml version="1.0" standalone="no"?>
<!DOCTYPE svg PUBLIC "-//W3C//DTD SVG 20010904//EN"
 "http://www.w3.org/TR/2001/REC-SVG-20010904/DTD/svg10.dtd">
<svg version="1.0" xmlns="http://www.w3.org/2000/svg"
 width="100.000000pt" height="100.000000pt" viewBox="0 0 100.000000 100.000000"
 preserveAspectRatio="xMidYMid meet">
<metadata>
Created by Ray De Lara, written by Peter Selinger 2001-2019
</metadata>
<g transform="translate(0.000000,100.000000) scale(0.100000,-0.100000)"
fill="#000000" stroke="none">
<path d="M835 909 c-15 -22 -29 -47 -32 -55 -4 -12 -56 -14 -317 -14 -171 0
-316 -4 -322 -8 -7 -4 -19 -24 -28 -45 -9 -22 -38 -60 -65 -85 -59 -57 -71
-92 -71 -221 0 -112 21 -168 76 -202 20 -12 45 -41 59 -69 13 -26 31 -50 40
-54 9 -3 153 -6 321 -6 l304 0 25 -50 25 -50 69 0 c54 0 70 4 75 16 3 9 6 206
6 438 0 315 -3 425 -12 434 -7 7 -38 12 -70 12 -57 0 -58 -1 -83 -41z m113
-411 l2 -398 -35 0 c-32 0 -37 4 -58 48 l-22 47 -320 5 -320 5 -24 45 c-13 25
-38 54 -55 65 -49 32 -71 87 -69 175 2 99 20 149 65 178 21 14 44 43 58 73
l23 49 319 0 318 0 21 43 c31 60 39 68 68 65 l26 -3 3 -397z"/>
</g>
</svg>
