<?xml version="1.0" standalone="no"?>
<!DOCTYPE svg PUBLIC "-//W3C//DTD SVG 20010904//EN"
 "http://www.w3.org/TR/2001/REC-SVG-20010904/DTD/svg10.dtd">
<svg version="1.0" xmlns="http://www.w3.org/2000/svg"
 width="100.000000pt" height="100.000000pt" viewBox="0 0 100.000000 100.000000"
 preserveAspectRatio="xMidYMid meet">

<g transform="translate(0.000000,100.000000) scale(0.100000,-0.100000)"
fill="#000000" stroke="none">
<path d="M170 714 c-138 -60 -189 -209 -114 -331 18 -28 49 -59 77 -77 43 -27
56 -29 164 -34 l118 -4 29 31 30 31 216 0 216 0 29 -30 c15 -16 32 -27 37 -24
13 8 10 441 -3 450 -6 3 -23 -8 -38 -26 l-27 -33 -217 5 -217 4 -28 27 c-27
26 -32 27 -133 27 -70 -1 -115 -6 -139 -16z m263 -34 l35 -30 206 0 c113 0
206 -3 206 -6 0 -3 -57 -70 -126 -150 l-126 -144 -87 0 c-80 0 -89 -2 -111
-25 -22 -23 -30 -25 -124 -25 -77 0 -111 5 -141 19 -130 60 -158 222 -57 323
48 49 105 66 214 67 72 1 80 -1 111 -29z m517 -182 c0 -175 -1 -181 -18 -165
-15 14 -41 17 -141 17 -68 0 -121 4 -119 8 3 9 271 320 276 321 1 1 2 -81 2
-181z"/>
</g>
</svg>
