<?xml version="1.0" standalone="no"?>
<!DOCTYPE svg PUBLIC "-//W3C//DTD SVG 20010904//EN"
 "http://www.w3.org/TR/2001/REC-SVG-20010904/DTD/svg10.dtd">
<svg version="1.0" xmlns="http://www.w3.org/2000/svg"
 width="100.000000pt" height="100.000000pt" viewBox="0 0 100.000000 100.000000"
 preserveAspectRatio="xMidYMid meet">

<g transform="translate(0.000000,100.000000) scale(0.100000,-0.100000)"
fill="#000000" stroke="none">
<path d="M93 625 c-24 -24 -44 -35 -64 -35 l-29 0 0 -85 0 -85 35 0 c24 0 37
-6 45 -20 19 -36 63 -50 153 -50 71 0 87 3 102 20 17 19 31 20 310 20 279 0
293 -1 310 -20 10 -11 22 -20 27 -20 4 0 8 70 8 155 0 85 -4 155 -9 155 -5 0
-14 -7 -21 -15 -19 -22 -611 -22 -630 0 -9 11 -35 15 -107 15 l-95 0 -35 -35z
m232 5 c17 -19 31 -20 321 -20 191 0 305 4 309 10 13 22 25 8 25 -30 l0 -40
-75 0 c-43 0 -75 -4 -75 -10 0 -6 32 -10 75 -10 l75 0 0 -30 0 -30 -82 -2 -83
-2 83 -3 82 -4 0 -39 c0 -38 -12 -52 -25 -30 -4 6 -118 10 -309 10 -290 0
-304 -1 -321 -20 -15 -16 -31 -20 -87 -20 -81 0 -133 19 -150 54 -9 20 -19 26
-45 26 l-33 0 0 70 0 70 34 0 c25 0 38 6 50 26 23 35 49 43 137 43 64 1 79 -2
94 -19z"/>
</g>
</svg>
