<?xml version="1.0" standalone="no"?>
<!DOCTYPE svg PUBLIC "-//W3C//DTD SVG 20010904//EN"
 "http://www.w3.org/TR/2001/REC-SVG-20010904/DTD/svg10.dtd">
<svg version="1.0" xmlns="http://www.w3.org/2000/svg"
 width="100.000000pt" height="100.000000pt" viewBox="0 0 100.000000 100.000000"
 preserveAspectRatio="xMidYMid meet">

<g transform="translate(0.000000,100.000000) scale(0.100000,-0.100000)"
fill="#000000" stroke="none">
<path d="M890 786 c0 -13 -47 -15 -347 -18 l-348 -3 -46 -27 c-118 -69 -163
-195 -116 -320 22 -57 91 -123 143 -137 24 -7 168 -11 377 -11 333 0 337 0
337 -21 0 -18 5 -20 48 -17 l47 3 0 280 0 280 -47 3 c-37 2 -48 0 -48 -12z
m68 -268 c-3 -224 -5 -253 -19 -256 -10 -2 -19 5 -22 18 -5 20 -11 20 -359 20
-320 0 -357 2 -393 19 -92 41 -137 139 -115 248 10 48 20 65 59 103 27 26 63
51 87 58 29 8 141 12 383 12 296 0 341 2 341 15 0 8 9 15 20 15 20 0 20 -5 18
-252z"/>
<path d="M527 561 c-44 -42 -42 -51 14 -100 l39 -33 0 36 0 36 75 0 75 0 0
-37 0 -37 45 44 45 44 -42 44 -43 43 -5 -33 -5 -33 -72 -3 -73 -3 0 36 c0 19
-3 35 -7 34 -5 -1 -25 -18 -46 -38z"/>
</g>
</svg>
