<?xml version="1.0" standalone="no"?>
<!DOCTYPE svg PUBLIC "-//W3C//DTD SVG 20010904//EN"
 "http://www.w3.org/TR/2001/REC-SVG-20010904/DTD/svg10.dtd">
<svg version="1.0" xmlns="http://www.w3.org/2000/svg"
 width="100.000000pt" height="100.000000pt" viewBox="0 0 100.000000 100.000000"
 preserveAspectRatio="xMidYMid meet">

<g transform="translate(0.000000,100.000000) scale(0.100000,-0.100000)"
fill="#000000" stroke="none">
<path d="M223 760 c-56 -12 -91 -31 -135 -75 -51 -51 -71 -99 -76 -176 -7
-111 44 -196 146 -246 50 -25 69 -28 182 -31 l125 -4 34 36 35 36 181 0 181 0
34 -35 c18 -19 37 -32 42 -29 11 7 11 521 0 528 -5 3 -24 -10 -42 -29 l-34
-35 -179 0 -180 0 -38 35 -39 35 -98 -1 c-53 -1 -116 -5 -139 -9z m265 -52
l33 -33 162 -2 c89 -2 166 -3 171 -3 5 0 -28 -38 -74 -86 l-83 -85 81 -82 c45
-45 82 -86 82 -90 0 -4 -76 -7 -170 -7 l-169 0 -34 -30 c-34 -29 -37 -30 -143
-30 -132 0 -168 9 -222 56 -59 50 -84 104 -85 179 -1 72 21 124 76 176 54 53
102 67 232 68 l109 1 34 -32z m472 -208 c0 -109 -4 -201 -8 -204 -5 -3 -55 42
-113 100 l-104 104 104 104 c58 58 108 103 113 100 4 -3 8 -95 8 -204z"/>
</g>
</svg>
