<?xml version="1.0" standalone="no"?>
<!DOCTYPE svg PUBLIC "-//W3C//DTD SVG 20010904//EN"
 "http://www.w3.org/TR/2001/REC-SVG-20010904/DTD/svg10.dtd">
<svg version="1.0" xmlns="http://www.w3.org/2000/svg"
 width="100.000000pt" height="100.000000pt" viewBox="0 0 100.000000 100.000000"
 preserveAspectRatio="xMidYMid meet">

<g transform="translate(0.000000,100.000000) scale(0.100000,-0.100000)"
fill="#000000" stroke="none">
<path d="M158 720 c-51 -15 -100 -53 -129 -99 -25 -38 -29 -55 -29 -112 0 -81
11 -113 53 -158 54 -57 97 -71 223 -71 105 0 112 1 134 25 l23 25 237 0 236 0
23 -30 c12 -17 26 -28 32 -25 11 8 12 455 1 455 -5 0 -19 -11 -32 -25 l-23
-25 -242 0 -242 0 -23 25 c-22 23 -29 25 -119 24 -53 0 -108 -4 -123 -9z m242
-45 c22 -23 30 -25 125 -25 l101 0 49 -57 c84 -98 81 -88 50 -125 -15 -18 -45
-52 -67 -75 l-39 -43 -103 0 c-96 0 -104 -1 -126 -25 -21 -23 -31 -25 -104
-25 -96 0 -149 13 -194 47 -90 68 -98 218 -16 295 54 50 81 58 195 58 100 0
107 -1 129 -25z m550 -171 c0 -97 -4 -174 -8 -172 -5 2 -42 40 -82 86 -65 74
-71 84 -58 100 47 56 141 162 144 162 2 0 4 -79 4 -176z m-86 124 c-11 -13
-36 -42 -56 -64 l-36 -42 -29 32 c-15 17 -41 46 -57 64 l-30 32 114 0 113 0
-19 -22z m-41 -204 c26 -28 47 -56 47 -63 0 -7 -31 -11 -100 -11 -55 0 -100 4
-100 9 0 12 93 121 100 118 3 -1 27 -25 53 -53z"/>
</g>
</svg>
