<?xml version="1.0" standalone="no"?>
<!DOCTYPE svg PUBLIC "-//W3C//DTD SVG 20010904//EN"
 "http://www.w3.org/TR/2001/REC-SVG-20010904/DTD/svg10.dtd">
<svg version="1.0" xmlns="http://www.w3.org/2000/svg"
 width="100.000000pt" height="100.000000pt" viewBox="0 0 100.000000 100.000000"
 preserveAspectRatio="xMidYMid meet">

<g transform="translate(0.000000,100.000000) scale(0.100000,-0.100000)"
fill="#000000" stroke="none">
<path d="M192 878 c-16 -16 -16 -90 0 -106 9 -9 90 -12 305 -12 279 0 293 1
303 19 13 25 13 67 0 92 -10 18 -24 19 -303 19 -215 0 -296 -3 -305 -12z m586
-55 l-3 -38 -285 0 -285 0 -3 38 -3 37 291 0 291 0 -3 -37z"/>
<path d="M5 668 c-3 -8 -4 -81 -3 -163 l3 -150 50 0 50 0 0 160 0 160 -48 3
c-33 2 -49 -1 -52 -10z m85 -153 l0 -135 -35 0 -35 0 0 135 0 135 35 0 35 0 0
-135z"/>
<path d="M180 489 c0 -226 7 -256 70 -319 58 -59 98 -70 251 -70 140 0 180 12
236 70 64 66 68 84 68 305 l0 200 -312 3 -313 2 0 -191z m90 -71 l-1 -233 -24
28 c-37 42 -45 88 -45 270 l0 167 35 0 35 0 0 -232z m420 -13 l0 -244 -32 -18
c-47 -25 -275 -26 -330 -1 l-38 17 0 245 0 246 200 0 200 0 0 -245z m90 62 c0
-172 -1 -187 -23 -227 -44 -83 -47 -70 -47 179 l0 231 35 0 35 0 0 -183z"/>
<path d="M882 668 c-17 -17 -17 -289 0 -306 13 -13 66 -16 92 -6 24 9 24 309
0 318 -26 10 -79 7 -92 -6z m88 -153 l0 -135 -35 0 -35 0 0 135 0 135 35 0 35
0 0 -135z"/>
</g>
</svg>
